<svg width="132" height="36" viewBox="0 0 132 36" fill="none" xmlns="http://www.w3.org/2000/svg">
<path d="M57.9576 17.0819C59.4092 16.1317 60.3066 14.6273 60.3066 12.7534C60.3066 9.48059 57.4033 7.39551 53.4179 7.39551H45.4735V28.6686H54.1569C58.2215 28.6686 61.0456 26.214 61.0456 22.4134C61.0192 20.0116 59.8579 18.1376 57.9576 17.0819ZM48.7727 10.4044H53.4179C55.6085 10.4044 57.0338 11.4337 57.0338 13.3076C57.0338 15.1816 55.6085 16.2109 53.4179 16.2109H48.7727V10.4044ZM54.1305 25.6597H48.7727V19.2198H54.1305C56.3212 19.2198 57.7464 20.3283 57.7464 22.4397C57.7464 24.5512 56.3212 25.6597 54.1305 25.6597Z" fill="#1B202B"/>
<path d="M65.5325 12.7534H62.3653V28.6422H65.5325V12.7534Z" fill="#1B202B"/>
<path d="M63.9489 7.39551C62.9459 7.39551 62.1277 8.2137 62.1277 9.21665C62.1277 10.2196 62.9459 11.0378 63.9489 11.0378C64.9518 11.0378 65.77 10.2196 65.77 9.21665C65.77 8.2137 64.9518 7.39551 63.9489 7.39551Z" fill="#1B202B"/>
<path d="M80.2072 14.3107C78.9403 13.0966 77.1984 12.4368 75.1133 12.4368C70.2833 12.4368 66.8521 15.6568 66.8521 20.1436C66.8521 24.6569 70.2833 27.8505 75.1133 27.8505C77.172 27.8505 78.9139 27.1907 80.2072 25.9502V26.0822C80.2072 29.3285 78.2277 31.44 75.1925 31.44C72.7907 31.44 70.6528 30.1467 70.3625 27.6658H67.1161C67.4592 31.7831 70.9167 34.3433 75.1925 34.3433C80.1544 34.3433 83.4008 30.9385 83.4008 26.0822V12.7535H80.2336V14.3107H80.2072ZM75.1397 24.9472C72.1308 24.9472 70.0457 23.0469 70.0457 20.1436C70.0457 17.2932 72.1044 15.3136 75.1397 15.3136C78.2013 15.3136 80.2336 17.2932 80.2336 20.1436C80.2072 23.0469 78.1749 24.9472 75.1397 24.9472Z" fill="#1B202B"/>
<path d="M92.9817 12.4368C88.1517 12.4368 84.7205 15.8679 84.7205 20.6979C84.7205 25.5543 88.1517 28.959 92.9817 28.959C96.4128 28.959 99.3953 27.2699 100.372 24.4458H96.8615C95.9641 25.6863 94.5653 26.1613 92.9817 26.1613C90.3423 26.1613 88.442 24.4986 87.9933 21.912H101.137C101.19 21.5425 101.243 21.1202 101.243 20.6979C101.243 15.8679 97.8116 12.4368 92.9817 12.4368ZM88.0725 19.1935C88.6004 16.7917 90.4479 15.2345 93.008 15.2345C95.5682 15.2345 97.4158 16.7917 97.9436 19.1935H88.0725Z" fill="#1B202B"/>
<path d="M112.645 12.7534L108.105 24.5249L103.565 12.7534H100.161L106.416 28.5631L104.252 34.0265H107.63L116.05 12.7534H112.645Z" fill="#1B202B"/>
<path d="M131.516 20.6979C131.516 15.8679 128.085 12.4368 123.255 12.4368C118.425 12.4368 114.994 15.8679 114.994 20.6979C114.994 25.5543 118.425 28.959 123.255 28.959C126.686 28.959 129.668 27.2699 130.645 24.4458H127.108C126.211 25.6863 124.812 26.1613 123.228 26.1613C120.589 26.1613 118.689 24.4986 118.24 21.912H131.384C131.463 21.5161 131.516 21.0938 131.516 20.6979ZM118.319 19.1935C118.847 16.7917 120.695 15.2345 123.255 15.2345C125.815 15.2345 127.663 16.7917 128.19 19.1935H118.319Z" fill="#1B202B"/>
<path d="M23.6725 9.13745H12.5609V12.3311H23.6725V9.13745Z" fill="#1B202B"/>
<path d="M23.6725 23.6802H12.5609V26.8738H23.6725V23.6802Z" fill="#1B202B"/>
<path d="M26.787 12.4365H23.5934V23.5481H26.787V12.4365Z" fill="#1B202B"/>
<path d="M12.4026 12.4365H9.20895V23.5481H12.4026V12.4365Z" fill="#1B202B"/>
<path d="M21.1318 0.000104998L18.8736 2.2583L33.7292 17.1139L35.9874 14.8557L21.1318 0.000104998Z" fill="#1B202B"/>
<path d="M2.27083 18.8863L0.0126343 21.1445L14.8682 36.0001L17.1264 33.7419L2.27083 18.8863Z" fill="#1B202B"/>
<path d="M33.7418 18.8734L18.8863 33.729L21.1445 35.9872L36 21.1316L33.7418 18.8734Z" fill="#1B202B"/>
<path d="M14.8556 0.0121053L0 14.8677L2.2582 17.1259L17.1138 2.2703L14.8556 0.0121053Z" fill="#1B202B"/>
</svg>
