<svg id="Layer_1" data-name="Layer 1" xmlns="http://www.w3.org/2000/svg" xmlns:xlink="http://www.w3.org/1999/xlink" viewBox="0 0 498.8 164.3"><defs><style>.cls-1{fill:none;}.cls-2{clip-path:url(#clip-path);}</style><clipPath id="clip-path"><polygon class="cls-1" points="0.3 3.12 499.1 0 499.1 164.3 0.3 164.3 0.3 3.12"/></clipPath></defs><title>traitly-logo-black</title><g class="cls-2"><path d="M11.6,58.62H.3V39.12H11.6V4.62H33v34.5H52.9v19.5H33v40.2c0,9.8,3.4,13.4,11.3,13.4a35.41,35.41,0,0,0,7.5-.7v19.1a50.1,50.1,0,0,1-11.1,1.1c-19.5,0-29.1-10.2-29.1-30.6Z"/></g><g class="cls-2"><path d="M65.9,131.22V39.12H87.2v13.4c4.3-9.5,14.2-15.2,26.8-15.2a37.77,37.77,0,0,1,6.4.5v20.7a48.73,48.73,0,0,0-8.9-.9c-14.8,0-24.3,9.3-24.3,24.1v49.4H65.9Z"/></g><g class="cls-2"><path d="M199.7,52.12v-13h21.5V102c0,7.7,1.8,10.6,6.6,10.6a39.33,39.33,0,0,0,4.5-.4v17.3c-2.3.9-5.9,1.4-10.5,1.4-5.2,0-9.3-.9-12.5-2.9a16.83,16.83,0,0,1-7.3-10.9c-6.3,9.5-16.6,14.1-30.9,14.1a43,43,0,0,1-32.2-13.6c-8.6-9.1-12.9-20.2-12.9-33.6s4.3-24.5,12.9-33.4A43,43,0,0,1,171.1,37c14.3.1,25.2,6.5,28.6,15.1m-6.4,51.7c5.4-5.2,8-11.8,8-19.7a27.15,27.15,0,0,0-27.5-27.6,25.8,25.8,0,0,0-19.1,7.9c-5,5.2-7.5,11.8-7.5,19.7s2.5,14.5,7.5,19.7a25.8,25.8,0,0,0,19.1,7.9,26.7,26.7,0,0,0,19.5-7.9"/></g><g class="cls-2"><path d="M243,15.82a12.8,12.8,0,0,1,25.6,0,12.8,12.8,0,0,1-25.6,0m2.1,23.3h21.5v63.3c0,7,1.4,9.5,6.3,9.5a17.62,17.62,0,0,0,3.8-.4v18.1c-2.1.9-5.7,1.4-10.7,1.4-13.8,0-20.7-7.7-20.7-22.9v-69Z"/></g><g class="cls-2"><path d="M290.9,58.62H279.6V39.12h11.3V4.62h21.5v34.5h19.8v19.5H312.4v40.2c0,9.8,3.4,13.4,11.3,13.4a35.41,35.41,0,0,0,7.5-.7v19.1a50.1,50.1,0,0,1-11.1,1.1c-19.5,0-29.1-10.2-29.1-30.6V58.62Z"/></g><g class="cls-2"><path d="M344.9,4.62h21.5v95.1c0,8.8,2.9,12.5,10.7,12.5a23.59,23.59,0,0,0,6.4-.7v19.1a39,39,0,0,1-10.2,1.1c-19,0-28.4-9.7-28.4-29.2Z"/></g><g class="cls-2"><path d="M399.8,141.08a32.13,32.13,0,0,0,10,1.4,14,14,0,0,0,7.9-2c2-1.3,3.8-3.9,5.2-7.7l2.3-6.4L387.5,36l21.6-3.12,26.5,68,24.9-68h21.6l-40.4,104.8c-2.7,7-5.9,12.3-9.7,16.1-5.4,5-12.5,7.5-21.6,7.5a38.72,38.72,0,0,1-10.6-1.39V141.08Z"/></g></svg>