<?xml version="1.0" encoding="utf-8"?>
<!-- Generator: Adobe Illustrator 21.1.0, SVG Export Plug-In . SVG Version: 6.00 Build 0)  -->
<svg version="1.1" id="Layer_1" xmlns="http://www.w3.org/2000/svg" xmlns:xlink="http://www.w3.org/1999/xlink" x="0px" y="0px"
	 viewBox="0 0 498.8 164.3" style="enable-background:new 0 0 498.8 164.3;" xml:space="preserve">
<style type="text/css">
	.st0{clip-path:url(#SVGID_2_);fill:#ffffff;}
	.st1{clip-path:url(#SVGID_2_);fill:#ffffff;}
	.st2{clip-path:url(#SVGID_2_);fill:#ffffff;}
	.st3{clip-path:url(#SVGID_2_);fill:#ffffff;}
	.st4{clip-path:url(#SVGID_2_);fill:#ffffff;}
	.st5{clip-path:url(#SVGID_2_);fill:#ffffff;}
</style>
<g>
	<defs>
		<rect id="SVGID_1_" x="0.3" y="-0.2" width="498.8" height="164.3"/>
	</defs>
	<clipPath id="SVGID_2_">
		<use xlink:href="#SVGID_1_"  style="overflow:visible;"/>
	</clipPath>
	<path class="st0" d="M11.6,55.3H0.3V35.8h11.3V1.3H33v34.5h19.9v19.5H33v40.2c0,9.8,3.4,13.4,11.3,13.4c2.7,0,5.2-0.2,7.5-0.7v19.1
		c-3,0.7-6.8,1.1-11.1,1.1c-19.5,0-29.1-10.2-29.1-30.6V55.3z"/>
	<path class="st1" d="M65.9,127.9V35.8h21.3v13.4C91.5,39.7,101.4,34,114,34c2.5,0,4.7,0.2,6.4,0.5v20.7c-2.7-0.5-5.7-0.9-8.9-0.9
		c-14.8,0-24.3,9.3-24.3,24.1v49.4H65.9z"/>
	<path class="st2" d="M199.7,48.8V35.8h21.5v62.9c0,7.7,1.8,10.6,6.6,10.6c1.3,0,2.9-0.2,4.5-0.4v17.3c-2.3,0.9-5.9,1.4-10.5,1.4
		c-5.2,0-9.3-0.9-12.5-2.9c-3.9-2.7-6.4-6.3-7.3-10.9c-6.3,9.5-16.6,14.1-30.9,14.1c-12.7,0-23.4-4.5-32.2-13.6
		c-8.6-9.1-12.9-20.2-12.9-33.6c0-13.4,4.3-24.5,12.9-33.4c8.8-9.1,19.5-13.6,32.2-13.6C185.4,33.8,196.3,40.2,199.7,48.8
		 M193.3,100.5c5.4-5.2,8-11.8,8-19.7c0-7.9-2.7-14.5-8-19.7c-5.2-5.2-11.8-7.9-19.5-7.9c-7.7,0-13.9,2.7-19.1,7.9
		c-5,5.2-7.5,11.8-7.5,19.7c0,7.9,2.5,14.5,7.5,19.7c5.2,5.2,11.4,7.9,19.1,7.9C181.5,108.4,188.1,105.7,193.3,100.5"/>
	<path class="st2" d="M243,12.5c0-7.2,5.7-12.7,12.9-12.7c7,0,12.7,5.5,12.7,12.7c0,7.2-5.7,12.7-12.7,12.7
		C248.7,25.2,243,19.7,243,12.5 M245.1,35.8h21.5v63.3c0,7,1.4,9.5,6.3,9.5c1.6,0,2.9-0.2,3.8-0.4v18.1c-2.1,0.9-5.7,1.4-10.7,1.4
		c-13.8,0-20.7-7.7-20.7-22.9V35.8z"/>
	<path class="st3" d="M290.9,55.3h-11.3V35.8h11.3V1.3h21.5v34.5h19.8v19.5h-19.8v40.2c0,9.8,3.4,13.4,11.3,13.4
		c2.7,0,5.2-0.2,7.5-0.7v19.1c-3,0.7-6.8,1.1-11.1,1.1c-19.5,0-29.1-10.2-29.1-30.6V55.3z"/>
	<path class="st4" d="M344.9,1.3h21.5v95.1c0,8.8,2.9,12.5,10.7,12.5c2.5,0,4.7-0.2,6.4-0.7v19.1c-2.5,0.7-5.9,1.1-10.2,1.1
		c-19,0-28.4-9.7-28.4-29.2V1.3z"/>
	<path class="st5" d="M399.8,144c2.7,0.9,6.1,1.4,10,1.4c3.4,0,5.9-0.7,7.9-2c2-1.3,3.8-3.9,5.2-7.7l2.3-6.4l-37.7-93.5h21.6
		l26.5,68l24.9-68h21.6l-40.4,104.8c-2.7,7-5.9,12.3-9.7,16.1c-5.4,5-12.5,7.5-21.6,7.5c-3.9,0-7.5-0.5-10.6-1.4V144z"/>
</g>
</svg>
