<svg id="Layer_1" data-name="Layer 1" xmlns="http://www.w3.org/2000/svg" xmlns:xlink="http://www.w3.org/1999/xlink" viewBox="0 0 906 360"><defs><style>.cls-1{fill:none;}.cls-2{clip-path:url(#clip-path);}.cls-3{fill:#4e46dc;}</style><clipPath id="clip-path"><rect class="cls-1" x="3.12" y="39.3" width="899.77" height="296.48"/></clipPath></defs><g class="cls-2"><path class="cls-3" d="M23.44,139.31H3.12V104.15H23.44V41.88H62.16v62.27H98v35.16H62.16V211.9c0,17.74,6.13,24.19,20.32,24.19A60.86,60.86,0,0,0,96,234.81v34.52a90,90,0,0,1-20,1.93c-35.17,0-52.59-18.39-52.59-55.17Z"/><path class="cls-3" d="M121.52,270.35V104.15h38.39v24.19c7.74-17.1,25.49-27.42,48.39-27.42a59.79,59.79,0,0,1,11.62,1v37.42a82.66,82.66,0,0,0-16.13-1.61c-26.78,0-43.88,16.78-43.88,43.55v89.1Z"/><path class="cls-3" d="M362.83,127.7V104.15h38.72V217.71c0,13.87,3.23,19,11.94,19a78.3,78.3,0,0,0,8.06-.65v31.3c-4.19,1.61-10.64,2.58-19,2.58-9.36,0-16.78-1.61-22.59-5.16-7.09-4.84-11.61-11.29-13.22-19.68-11.29,17.1-30,25.48-55.81,25.48-22.91,0-42.27-8.06-58.08-24.51-15.48-16.46-23.22-36.46-23.22-60.65s7.74-44.2,23.22-60.33C268.63,108.66,288,100.6,310.9,100.6c26.13,0,45.81,11.61,51.93,27.1m-11.61,93.23c9.68-9.35,14.52-21.29,14.52-35.48S360.9,159.31,351.22,150c-9.35-9.36-21.29-14.2-35.16-14.2s-25.17,4.84-34.52,14.2c-9,9.35-13.55,21.29-13.55,35.49s4.51,26.13,13.55,35.48c9.35,9.36,20.64,14.2,34.52,14.2s25.81-4.84,35.16-14.2"/><path class="cls-3" d="M440.91,62.21a23.07,23.07,0,1,1,23.23,22.9,22.86,22.86,0,0,1-23.23-22.9m3.87,41.94h38.71v114.2c0,12.58,2.59,17.1,11.3,17.1a34.45,34.45,0,0,0,6.77-.64v32.58C497.69,269,491.24,270,482.2,270c-24.84,0-37.42-13.87-37.42-41.3Z"/><path class="cls-3" d="M527.37,139.31H507.05V104.15h20.32V41.88h38.72v62.27H601.9v35.16H566.09V211.9c0,17.74,6.13,24.19,20.32,24.19A60.86,60.86,0,0,0,600,234.81v34.52a90,90,0,0,1-20,1.93c-35.17,0-52.59-18.39-52.59-55.17Z"/><path class="cls-3" d="M624.8,41.88h38.72V213.51c0,15.81,5.16,22.59,19.35,22.59a41.13,41.13,0,0,0,11.62-1.3v34.52q-6.78,1.94-18.39,1.94c-34.2,0-51.3-17.42-51.3-52.59Z"/><path class="cls-3" d="M723.85,299.33a58,58,0,0,0,18.07,2.58c6.12,0,10.64-1.29,14.19-3.55s6.77-7.1,9.35-13.87l4.2-11.62L701.59,104.15h39l47.75,122.59,44.84-122.59h39l-72.91,189q-7.26,18.87-17.42,29c-9.68,9-22.59,13.55-39,13.55a68,68,0,0,1-19-2.58Z"/><path class="cls-3" d="M874.48,56.83v2.44h4.1V71.91h2.7V59.27h4.09V56.83Zm26.11,0-5.39,8.46-5.41-8.46h-2.31V71.91H890V61.72l5.17,7.94,5.13-8V71.91h2.56V56.83Z"/></g><text/></svg>